<?xml version="1.0" encoding="UTF-8"?>
<svg id="Camada_1" data-name="Camada 1" xmlns="http://www.w3.org/2000/svg" viewBox="0 0 1136.4 460.26">
  <path d="m232.79,13.66h0c120.08,0,217.57,97.49,217.57,217.57v217.43H143.61c-68.85,0-124.74-55.9-124.74-124.74v-96.33C18.86,109.52,114.72,13.66,232.79,13.66Z" style="stroke-width: 0px;"/>
  <path d="m92.65,247.81c-3.23-13.31-5.99-26.69-4.81-40.6,2.7-31.74,19.27-55.05,44.51-72.82,38.14-26.84,82.35-35.99,127.31-42.62,6.16-.91,11.54.86,12.67,8.15,1.01,6.54-2.25,10.02-10.52,11.56-11.93,2.21-23.97,3.95-35.8,6.58-30.93,6.88-60.98,15.97-86.63,35.78-28.55,22.05-38.38,52.93-27.76,87.49,1.31,4.26,3.16,5.85,7.77,4.92,5.8-1.17,6.65-4.08,5.48-9.42-7.01-32.08,5.11-56.78,30.72-75.4,32.68-23.78,71.26-30.44,109.96-36.31,6.22-.94,10.9,2.36,11.68,8.67.79,6.4-3.24,10.02-9.39,11.13-6.6,1.19-13.24,2.2-19.86,3.3-29.29,4.87-57.68,12.31-82.05,30.34-16.49,12.2-25.88,27.87-22.46,49.29,1.58,9.92,3.08,11.07,12.59,8.55,16.48-4.37,32.94-8.85,49.41-13.26,19.59-5.24,39.4-8.34,59.77-5.99,27.28,3.15,51.77,12.2,70.14,33.7,22.58,26.41,21.67,65.31-2.25,95.69-24.29,30.84-56.91,47.15-95.14,52.68-51.73,7.48-97.39-14.98-118.59-58.42-8.66-17.74-11.06-37.6-15.6-51.38-4.62-17.16-8.15-29.32-11.13-41.62Zm154.56,17.49c-4.37-15.55-21.07-24.86-36.55-20.36-15.35,4.45-24.56,21.31-20.11,36.81,4.49,15.66,20.81,24.6,36.61,20.04,15.86-4.57,24.57-20.41,20.05-36.49Z" style="fill: #fff; stroke-width: 0px;"/>
  <path d="m662.34,400.65h-36.14c-3.22-10.21-5.16-21.54-5.83-33.98-10.11,24.98-29.09,37.47-56.96,37.47-16.77,0-30.23-4.91-40.39-14.74-10.16-9.83-15.24-22.18-15.24-37.06,0-38.64,33.92-57.96,101.76-57.96,2.66,0,6.27.06,10.83.17v-12.66c0-17.43-11.88-26.15-35.64-26.15s-36.2,8.72-39.31,26.15l-32.31-4.83c1.77-13.99,8.99-25.51,21.65-34.56,12.66-9.05,30.98-13.57,54.96-13.57,12.99,0,23.59,1.08,31.81,3.25,8.21,2.17,15.16,5.83,20.82,10.99,5.66,5.16,9.58,10.77,11.74,16.82,2.17,6.05,3.25,16.3,3.25,30.73v75.95c0,10.99,1.67,22.32,5,33.98Zm-41.97-85.61c-49.08,0-73.62,11.72-73.62,35.14,0,7,2.47,12.96,7.41,17.9,4.94,4.94,12.41,7.41,22.4,7.41,14.43,0,25.34-4.58,32.73-13.74,7.38-9.16,11.08-19.57,11.08-31.23v-15.49Z" style="stroke-width: 0px;"/>
  <path d="m842.05,400.65h-37.97v-105.1c0-11.1-2.56-19.46-7.66-25.07-5.11-5.61-11.27-8.41-18.49-8.41-9.88,0-18.54,4.33-25.98,12.99-7.44,8.66-11.16,21.71-11.16,39.14v86.44h-37.97v-168.22h34.64v38.97c12.1-28.31,29.09-42.47,50.97-42.47,14.77,0,27.4,4.66,37.89,13.99,10.49,9.33,15.74,25.71,15.74,49.13v108.59Z" style="stroke-width: 0px;"/>
  <path d="m965.47,371v29.65c-11.33,2.44-20.1,3.66-26.32,3.66-10.22,0-18.99-2.03-26.32-6.08-7.33-4.05-12.69-9.6-16.07-16.66-3.39-7.05-5.08-17.9-5.08-32.56v-87.11h-20.99v-29.48h23.15l3.5-43.8,31.15-2.83v46.64h33.81v29.48h-33.81v82.11c0,10.55,1.92,17.74,5.75,21.57,3.83,3.83,11.08,5.75,21.74,5.75,3,0,6.16-.11,9.49-.33Z" style="stroke-width: 0px;"/>
  <path d="m1123.03,219.43l-65.46,191.54c-4,11.77-9.47,20.9-16.41,27.4-6.94,6.5-16.74,9.74-29.4,9.74-5,0-12.27-.39-21.82-1.17v-30.15l18.15.33c7.99,0,13.91-1.31,17.74-3.91,3.83-2.61,6.85-7.25,9.08-13.91,2.22-6.66,3.33-10.55,3.33-11.66,0-.67-1.17-4.11-3.5-10.33l-57.79-157.89h39.81l40.81,110.92,35.14-110.92h30.31Z" style="stroke-width: 0px;"/>
</svg>